<?xml version="1.0" encoding="UTF-8" standalone="no"?>
<!-- Created with Inkscape (http://www.inkscape.org/) -->

<svg
   xmlns:dc="http://purl.org/dc/elements/1.1/"
   xmlns:cc="http://creativecommons.org/ns#"
   xmlns:rdf="http://www.w3.org/1999/02/22-rdf-syntax-ns#"
   xmlns:svg="http://www.w3.org/2000/svg"
   xmlns="http://www.w3.org/2000/svg"
   xmlns:sodipodi="http://sodipodi.sourceforge.net/DTD/sodipodi-0.dtd"
   xmlns:inkscape="http://www.inkscape.org/namespaces/inkscape"
   width="210mm"
   height="297mm"
   viewBox="0 0 744.09448819 1052.3622047"
   id="svg2"
   version="1.1"
   inkscape:version="0.91 r13725"
   inkscape:export-filename="/Users/peter/nena/loggy/assets/icon/icon.png"
   inkscape:export-xdpi="108.37"
   inkscape:export-ydpi="108.37"
   sodipodi:docname="icon.svg">
  <defs
     id="defs4" />
  <sodipodi:namedview
     id="base"
     pagecolor="#d6ffff"
     bordercolor="#666666"
     borderopacity="1.0"
     inkscape:pageopacity="0"
     inkscape:pageshadow="2"
     inkscape:zoom="0.24748737"
     inkscape:cx="420.50008"
     inkscape:cy="1022.1133"
     inkscape:document-units="px"
     inkscape:current-layer="layer3"
     showgrid="false"
     showborder="false"
     inkscape:window-width="1366"
     inkscape:window-height="719"
     inkscape:window-x="0"
     inkscape:window-y="1"
     inkscape:window-maximized="1" />
  <metadata
     id="metadata7">
    <rdf:RDF>
      <cc:Work
         rdf:about="">
        <dc:format>image/svg+xml</dc:format>
        <dc:type
           rdf:resource="http://purl.org/dc/dcmitype/StillImage" />
        <dc:title></dc:title>
      </cc:Work>
    </rdf:RDF>
  </metadata>
  <g
     inkscape:groupmode="layer"
     id="layer3"
     inkscape:label="Layer 3"
     style="display:inline">
    <rect
       style="fill:#ffffff;fill-opacity:1;stroke:none;stroke-width:5;stroke-miterlimit:4;stroke-dasharray:none;stroke-opacity:1"
       id="rect4217"
       width="1024"
       height="1024"
       x="202.0305"
       y="-523.47577"
       inkscape:export-xdpi="90"
       inkscape:export-ydpi="90" />
  </g>
  <g
     inkscape:label="Layer 1"
     inkscape:groupmode="layer"
     id="layer1"
     style="display:inline">
    <path
       style="fill:none;fill-rule:evenodd;stroke:#000000;stroke-width:4.57681942;stroke-linecap:butt;stroke-linejoin:miter;stroke-miterlimit:4;stroke-dasharray:none;stroke-opacity:1"
       d="m 529.31471,347.48273 c 0,0 88.98291,-3.7283 200.84318,-77.95432 140.10248,-92.96643 -94.58728,-136.6814 -55.27795,-222.726626 26.49215,-57.989358 58.6337,-78.142957 128.98185,-142.916254 103.62903,-95.41675 -148.05431,-103.33305 38.69456,-191.17368"
       id="path4142"
       inkscape:connector-curvature="0"
       sodipodi:nodetypes="csssc" />
    <path
       style="fill:#ff0000;fill-opacity:1;fill-rule:evenodd;stroke:#000000;stroke-width:0.48209366px;stroke-linecap:butt;stroke-linejoin:miter;stroke-opacity:1"
       d="m 529.98252,165.32063 c -26.9331,-0.55652 -60.011,29.28393 -50.64639,54.54271 32.42036,87.44615 51.62074,128.56552 51.62074,128.56552 0,0 15.0275,-36.97194 51.62074,-125.64377 10.40628,-25.21621 -25.32184,-56.90091 -52.59509,-57.46446 z m -1.9e-4,26.29786 c 13.44788,-5e-5 24.34955,10.90162 24.34949,24.3495 5e-5,13.44787 -10.90161,24.34954 -24.34949,24.34949 -13.44751,-4.7e-4 -24.3486,-10.90199 -24.34855,-24.34949 -6e-5,-13.44751 10.90104,-24.34903 24.34855,-24.3495 z"
       id="path4140"
       inkscape:connector-curvature="0"
       sodipodi:nodetypes="sscsscscsc" />
    <path
       sodipodi:nodetypes="sscsscscsc"
       inkscape:connector-curvature="0"
       id="path4155"
       d="m 841.23976,-360.42006 c -11.19715,-0.23137 -24.94893,12.17448 -21.05569,22.67554 13.47842,36.35481 21.46077,53.44975 21.46077,53.44975 0,0 6.24752,-15.37069 21.46077,-52.23506 4.3263,-10.48337 -10.52729,-23.65594 -21.86585,-23.89023 z m -8e-5,10.93305 c 5.59082,-2e-5 10.12307,4.53223 10.12305,10.12305 2e-5,5.5908 -4.53223,10.12306 -10.12305,10.12303 -5.59066,-1.9e-4 -10.12267,-4.53238 -10.12265,-10.12303 -2e-5,-5.59066 4.53199,-10.12285 10.12265,-10.12305 z"
       style="fill:#0000ff;fill-opacity:1;fill-rule:evenodd;stroke:#000000;stroke-width:0.20042527px;stroke-linecap:butt;stroke-linejoin:miter;stroke-opacity:1"
       inkscape:export-xdpi="108.37"
       inkscape:export-ydpi="108.37" />
    <path
       sodipodi:nodetypes="sscsscscsc"
       inkscape:connector-curvature="0"
       id="path4157"
       d="m 763.41703,96.999375 c -12.21236,-0.25235 -27.211,13.278325 -22.96477,24.731505 14.70048,39.65101 23.40658,58.29592 23.40658,58.29592 0,0 6.81398,-16.76432 23.40657,-56.9711 4.71857,-11.43388 -11.48177,-25.800795 -23.84838,-26.056325 z m -8e-5,11.924345 c 6.09772,-3e-5 11.0409,4.94315 11.04088,11.04087 2e-5,6.09771 -4.94316,11.0409 -11.04088,11.04088 -6.09755,-2.2e-4 -11.04047,-4.94333 -11.04045,-11.04088 -3e-5,-6.09755 4.9429,-11.04066 11.04045,-11.04087 z"
       style="fill:#00c000;fill-opacity:1;fill-rule:evenodd;stroke:#000000;stroke-width:0.21859744px;stroke-linecap:butt;stroke-linejoin:miter;stroke-opacity:1" />
    <path
       style="fill:#00c000;fill-opacity:1;fill-rule:evenodd;stroke:#000000;stroke-width:0.19133921px;stroke-linecap:butt;stroke-linejoin:miter;stroke-opacity:1"
       d="m 710.4455,-81.511896 c -10.68952,-0.220883 -23.81789,11.622569 -20.10115,21.647583 12.86739,34.706687 20.48787,51.026651 20.48787,51.026651 0,0 5.9643,-14.673876 20.48787,-49.867031 4.13018,-10.008121 -10.05004,-22.583536 -20.87459,-22.807203 z m -7e-5,10.437424 c 5.33736,-2.6e-5 9.66415,4.326759 9.66413,9.664118 2e-5,5.33735 -4.32677,9.664144 -9.66413,9.664126 -5.33721,-1.92e-4 -9.66376,-4.326916 -9.66375,-9.664126 -2e-5,-5.33721 4.32654,-9.663934 9.66375,-9.664118 z"
       id="path4159"
       inkscape:connector-curvature="0"
       sodipodi:nodetypes="sscsscscsc" />
    <path
       sodipodi:nodetypes="sscsscscsc"
       inkscape:connector-curvature="0"
       id="path4161"
       d="m 824.57147,-221.7338 c -8.95869,-0.18512 -19.96133,9.74066 -16.84639,18.14243 10.78391,29.08702 17.1705,42.76448 17.1705,42.76448 0,0 4.99857,-12.2979 17.17049,-41.79262 3.46143,-8.38762 -8.42275,-18.92684 -17.4946,-19.11429 z m -5e-5,8.74741 c 4.47314,-2e-5 8.09933,3.62618 8.09932,8.09932 10e-6,4.47313 -3.62618,8.09933 -8.09932,8.09932 -4.47302,-1.6e-4 -8.09903,-3.62631 -8.09901,-8.09932 -2e-5,-4.47302 3.62599,-8.09916 8.09901,-8.09932 z"
       style="fill:#00c000;fill-opacity:1;fill-rule:evenodd;stroke:#000000;stroke-width:0.16035779px;stroke-linecap:butt;stroke-linejoin:miter;stroke-opacity:1" />
  </g>
  <g
     inkscape:groupmode="layer"
     id="layer2"
     inkscape:label="Layer 2"
     style="display:none">
    <rect
       style="display:inline;fill:none;fill-opacity:1;stroke:#000000;stroke-width:2.31075048;stroke-miterlimit:4;stroke-dasharray:none;stroke-opacity:1"
       id="rect4136"
       width="1021.6892"
       height="1021.6893"
       x="193.86252"
       y="-516.04675"
       inkscape:export-xdpi="90"
       inkscape:export-ydpi="90" />
  </g>
</svg>
